<?xml version="1.0" encoding="UTF-8" standalone="no"?>
<!-- Created with Inkscape (http://www.inkscape.org/) -->

<svg
   xmlns:dc="http://purl.org/dc/elements/1.1/"
   xmlns:cc="http://creativecommons.org/ns#"
   xmlns:rdf="http://www.w3.org/1999/02/22-rdf-syntax-ns#"
   xmlns:svg="http://www.w3.org/2000/svg"
   xmlns="http://www.w3.org/2000/svg"
   xmlns:xlink="http://www.w3.org/1999/xlink"
   xmlns:sodipodi="http://sodipodi.sourceforge.net/DTD/sodipodi-0.dtd"
   xmlns:inkscape="http://www.inkscape.org/namespaces/inkscape"
   width="468"
   height="60"
   id="svg2"
   version="1.1"
   inkscape:version="0.47 r22583"
   sodipodi:docname="did2.svg">
  <defs
     id="defs4">
    <linearGradient
       id="linearGradient3621">
      <stop
         style="stop-color:#ff0000;stop-opacity:1;"
         offset="0"
         id="stop3623" />
      <stop
         style="stop-color:#ffff00;stop-opacity:1;"
         offset="1"
         id="stop3625" />
    </linearGradient>
    <inkscape:perspective
       sodipodi:type="inkscape:persp3d"
       inkscape:vp_x="0 : 526.18109 : 1"
       inkscape:vp_y="0 : 1000 : 0"
       inkscape:vp_z="744.09448 : 526.18109 : 1"
       inkscape:persp3d-origin="372.04724 : 350.78739 : 1"
       id="perspective10" />
    <linearGradient
       inkscape:collect="always"
       xlink:href="#linearGradient3621"
       id="linearGradient3627"
       x1="220"
       y1="1007.3622"
       x2="220"
       y2="1037.3622"
       gradientUnits="userSpaceOnUse" />
    <filter
       inkscape:collect="always"
       id="filter3925"
       x="-0.013128866"
       width="1.0262577"
       y="-0.1395617"
       height="1.2791234">
      <feGaussianBlur
         inkscape:collect="always"
         stdDeviation="2.1430726"
         id="feGaussianBlur3927" />
    </filter>
    <linearGradient
       inkscape:collect="always"
       xlink:href="#linearGradient3621"
       id="linearGradient3938"
       gradientUnits="userSpaceOnUse"
       x1="457"
       y1="15"
       x2="457"
       y2="45"
       gradientTransform="translate(-3.091797,2.8924967)" />
    <linearGradient
       inkscape:collect="always"
       xlink:href="#linearGradient3621"
       id="linearGradient3940"
       gradientUnits="userSpaceOnUse"
       x1="220"
       y1="1007.3622"
       x2="220"
       y2="1037.3622"
       gradientTransform="translate(-3.091797,-989.46968)" />
    <filter
       inkscape:collect="always"
       id="filter3956"
       x="-0.019487984"
       width="1.038976"
       y="-0.23574424"
       height="1.4714885">
      <feGaussianBlur
         inkscape:collect="always"
         stdDeviation="3.6200263"
         id="feGaussianBlur3958" />
    </filter>
    <linearGradient
       inkscape:collect="always"
       xlink:href="#linearGradient3621"
       id="linearGradient4004"
       gradientUnits="userSpaceOnUse"
       gradientTransform="translate(-3.091797,2.8924967)"
       x1="457"
       y1="15"
       x2="457"
       y2="45" />
    <inkscape:perspective
       id="perspective4184"
       inkscape:persp3d-origin="0.5 : 0.33333333 : 1"
       inkscape:vp_z="1 : 0.5 : 1"
       inkscape:vp_y="0 : 1000 : 0"
       inkscape:vp_x="0 : 0.5 : 1"
       sodipodi:type="inkscape:persp3d" />
  </defs>
  <sodipodi:namedview
     id="base"
     pagecolor="#ffffff"
     bordercolor="#666666"
     borderopacity="1.0"
     inkscape:pageopacity="0.0"
     inkscape:pageshadow="2"
     inkscape:zoom="0.9983453"
     inkscape:cx="211.65318"
     inkscape:cy="31.331537"
     inkscape:document-units="px"
     inkscape:current-layer="layer5"
     showgrid="true"
     inkscape:window-width="1020"
     inkscape:window-height="556"
     inkscape:window-x="4"
     inkscape:window-y="0"
     inkscape:window-maximized="0">
    <inkscape:grid
       type="xygrid"
       id="grid2816"
       empspacing="5"
       visible="true"
       enabled="true"
       snapvisiblegridlinesonly="true" />
  </sodipodi:namedview>
  <metadata
     id="metadata7">
    <rdf:RDF>
      <cc:Work
         rdf:about="">
        <dc:format>image/svg+xml</dc:format>
        <dc:type
           rdf:resource="http://purl.org/dc/dcmitype/StillImage" />
        <dc:title></dc:title>
      </cc:Work>
    </rdf:RDF>
  </metadata>
  <g
     inkscape:groupmode="layer"
     id="layer5"
     inkscape:label="background">
    <image
       y="-180"
       x="0"
       id="image4186"
       height="468"
       width="468"
       xlink:href="file:///Applications/Wesnoth.app/Contents/Resources/data/campaigns/Descent_Into_Darkness/images/story/end.jpg" />
    <rect
       style="fill:#ffffff;fill-opacity:1;fill-rule:evenodd;stroke:none"
       id="rect4194"
       width="480"
       height="210"
       x="0"
       y="-210" />
    <rect
       y="60"
       x="0"
       height="210"
       width="480"
       id="rect4196"
       style="fill:#ffffff;fill-opacity:1;fill-rule:evenodd;stroke:none" />
  </g>
  <g
     inkscape:label="text glow"
     inkscape:groupmode="layer"
     id="layer1"
     transform="translate(0,-992.36218)"
     sodipodi:insensitive="true">
    <g
       id="g3691"
       style="font-size:42px;font-style:italic;font-variant:normal;font-weight:normal;font-stretch:normal;text-align:start;line-height:125%;writing-mode:lr-tb;text-anchor:start;fill:#000000;fill-opacity:1;stroke:#80c000;stroke-width:6;stroke-miterlimit:4;stroke-opacity:1;stroke-dasharray:none;filter:url(#filter3925);font-family:Apple Chancery;-inkscape-font-specification:Apple Chancery Italic" />
    <path
       id="path3846"
       style="fill:#000000;fill-opacity:1;stroke:#80c000;stroke-width:6;stroke-linecap:butt;stroke-linejoin:miter;stroke-miterlimit:4;stroke-opacity:1;stroke-dasharray:none;display:inline;filter:url(#filter3956)"
       d="m 440.9082,1010.2547 6,0 10,0 -2,6 c 0,0 -2.1828,-3.4967 -4,-4 -1.3245,-0.3669 -2.87657,0.2083 -4,1 -0.98241,0.6923 -1.42052,1.9471 -2,3 -1.58289,2.8761 -2.97213,5.8821 -4,9 -0.96219,2.9187 -1.66466,5.9451 -2,9 -0.10912,0.994 -0.58471,2.1887 0,3 0.61634,0.8551 1.95104,1.1038 3,1 2.67434,-0.2648 7,-4 7,-4 l -2,6 -10,0 -6,0 c 0,0 2.04568,-3.9778 3,-6 1.40112,-2.969 2.97213,-5.8821 4,-9 0.96219,-2.9187 1.41384,-5.9833 2,-9 0.38673,-1.9904 1,-6 1,-6 z m -3,0 c 0,0 -2.04568,3.9778 -3,6 -1.40112,2.9689 -2.97213,5.8821 -4,9 -0.96219,2.9187 -1.41384,5.9832 -2,9 -0.38673,1.9903 -1,6 -1,6 l -6,0 -10,0 1,-3 1,-3 c 0,0 2.1828,3.4966 4,4 1.3245,0.3668 2.87657,-0.2083 4,-1 0.98241,-0.6923 1.42052,-1.9471 2,-3 1.58289,-2.8762 2.97213,-5.8821 4,-9 0.96219,-2.9187 1.66466,-5.9452 2,-9 0.10912,-0.994 0.58471,-2.1888 0,-3 -0.61634,-0.8551 -1.95104,-1.1039 -3,-1 -2.67434,0.2648 -7,4 -7,4 l 2,-6 10,0 6,0 z m -52.81543,29.4258 3.28125,-2.3174 c 0.84765,1.1347 2.07812,1.7021 3.69141,1.7021 1.96874,0 3.13768,-0.9502 3.50683,-2.8506 0.21874,-1.0527 -0.38966,-2.5224 -1.82519,-4.4091 l -0.92285,-1.21 c -1.35353,-1.791 -1.91407,-3.2402 -1.68165,-4.3477 0.31445,-1.5859 1.26465,-2.9189 2.85059,-3.999 1.58593,-1.08 3.38378,-1.6201 5.39356,-1.6201 1.09373,0 2.249,0.2051 3.46582,0.6152 l -2.91211,2.2764 c -0.87502,-0.7793 -1.94826,-1.1689 -3.21973,-1.1689 -1.49025,0 -2.36524,0.622 -2.625,1.8662 -0.17774,0.8887 0.38964,2.1943 1.70215,3.917 l 1.00488,1.3535 c 1.49022,1.9687 2.11913,3.5547 1.88672,4.7578 -0.35548,1.7227 -1.49025,3.2471 -3.4043,4.5732 -1.91407,1.3125 -3.95118,1.9688 -6.11133,1.9688 -1.53125,0 -2.8916,-0.3692 -4.08105,-1.1074 m -15.01172,0 3.28125,-2.3174 c 0.84765,1.1347 2.07812,1.7021 3.69141,1.7021 1.96874,0 3.13768,-0.9502 3.50683,-2.8506 0.21874,-1.0527 -0.38966,-2.5224 -1.82519,-4.4091 l -0.92285,-1.21 c -1.35353,-1.791 -1.91407,-3.2402 -1.68164,-4.3477 0.31444,-1.5859 1.26464,-2.9189 2.85058,-3.999 1.58593,-1.08 3.38378,-1.6201 5.39356,-1.6201 1.09373,0 2.249,0.2051 3.46582,0.6152 l -2.91211,2.2764 c -0.87502,-0.7793 -1.94826,-1.1689 -3.21973,-1.1689 -1.49024,0 -2.36524,0.622 -2.625,1.8662 -0.17774,0.8887 0.38964,2.1943 1.70215,3.917 l 1.00488,1.3535 c 1.49022,1.9687 2.11913,3.5547 1.88672,4.7578 -0.35548,1.7227 -1.49025,3.2471 -3.4043,4.5732 -1.91407,1.3125 -3.95117,1.9688 -6.11132,1.9688 -1.53126,0 -2.89161,-0.3692 -4.08106,-1.1074 m -0.71777,-5.9473 c 0.28709,0.2324 0.4033,0.5059 0.34863,0.8203 -0.0957,0.4238 -0.68361,1.1485 -1.76367,2.1738 -2.87111,2.7071 -5.44825,4.0606 -7.73145,4.0606 -1.39453,0 -2.43359,-0.5537 -3.11718,-1.6611 -0.6836,-1.1075 -0.8545,-2.5225 -0.5127,-4.2452 0.6289,-3.1171 2.44043,-6.2685 5.43457,-9.4541 2.99413,-3.1992 5.64647,-4.7988 7.95703,-4.7988 1.66795,0 2.3242,0.8955 1.96875,2.6865 -0.3965,2.0098 -1.76369,3.9717 -4.10156,5.8858 -2.32423,1.914 -4.9629,3.247 -7.91602,3.999 -0.38281,3.2949 0.58789,4.9424 2.91211,4.9424 2.29687,0 4.47069,-1.4697 6.52149,-4.4092 m -8.85938,-3.0352 c 0.36914,0.1368 0.71777,0.2051 1.0459,0.2051 1.6953,0 3.28124,-0.5195 4.75781,-1.5586 1.49022,-1.039 2.37206,-2.2558 2.64551,-3.6504 0.31444,-1.5996 -0.34181,-2.3994 -1.96875,-2.3994 -1.17579,0 -2.37892,0.7041 -3.60937,2.1123 -1.23048,1.3946 -2.18751,3.1582 -2.8711,5.291 m -22.94824,8.8389 -3.30176,1.251 0.16407,-0.5742 0.47168,-1.5176 0.45117,-1.4356 2.97363,-9.5156 0.34863,-1.0869 c 0.24609,-0.8476 0.42382,-1.5312 0.53321,-2.0508 0.16405,-0.875 0.0273,-1.3125 -0.41016,-1.3125 -1.0254,0 -2.35841,1.1621 -3.99902,3.4863 -0.25977,-0.2597 -0.36915,-0.4853 -0.32813,-0.6767 0.16406,-0.8203 1.13476,-1.9346 2.91211,-3.3428 1.77733,-1.4218 3.09667,-2.1328 3.95801,-2.1328 1.17577,0 1.61327,0.752 1.3125,2.2559 -0.0684,0.3828 -0.20509,0.8955 -0.41016,1.5381 l -0.49219,1.6611 -0.43066,1.3945 -0.47168,1.4561 c 2.10546,-2.4063 4.27245,-4.3887 6.50098,-5.9473 2.22849,-1.5722 4.01951,-2.3584 5.37304,-2.3584 1.32615,0 1.80467,0.9229 1.43555,2.7686 -0.1094,0.5605 -0.34866,1.4013 -0.71777,2.5224 l -2.64551,7.6494 c -0.51955,1.5313 -0.86818,2.7413 -1.0459,3.6299 -0.15041,0.711 -0.0342,1.0664 0.34863,1.0664 0.94334,0 2.35838,-1.2578 4.24512,-3.7734 0.28709,0.2051 0.41013,0.417 0.36914,0.6357 -0.17776,0.8887 -1.1758,2.0576 -2.99414,3.5069 -1.80471,1.4355 -3.18556,2.1533 -4.14258,2.1533 -1.06642,0 -1.44923,-0.7656 -1.14843,-2.2969 0.2324,-1.1211 0.69041,-2.6728 1.37402,-4.6553 l 1.70215,-4.9629 c 0.56052,-1.6132 0.92966,-2.8915 1.10742,-3.8349 0.21873,-1.0801 -0.0479,-1.6201 -0.79981,-1.6201 -1.75001,0 -3.75978,1.1894 -6.02929,3.5683 -2.26954,2.3653 -3.82814,4.9082 -4.67578,7.6289 l -1.53809,4.9219 m -17.00098,-12.1816 c 1.4082,-1.9141 3.01464,-3.5137 4.81934,-4.7989 1.80467,-1.2851 3.35643,-1.9277 4.65527,-1.9277 1.74998,0 2.44725,0.9024 2.0918,2.707 -0.34182,1.7227 -1.38772,3.3018 -3.13769,4.7373 -1.73635,1.4219 -3.86232,2.4473 -6.37793,3.0762 1.66795,4.6621 3.13768,6.9932 4.40918,6.9932 0.91599,0 2.03709,-0.7998 3.36328,-2.3994 0.27341,0.2324 0.38279,0.458 0.32812,0.6767 -0.12307,0.6426 -0.92971,1.5244 -2.41992,2.6455 -1.47658,1.1211 -2.59767,1.6953 -3.36328,1.7227 -1.38087,0.068 -3.12404,-2.8369 -5.22949,-8.7158 l -0.32813,-0.9229 -2.60449,8.3877 -3.30176,1.251 0.16406,-0.5742 0.47168,-1.5176 0.45118,-1.4356 5.59863,-17.9648 c 1.32616,-4.2519 3.6162,-7.875 6.87012,-10.8691 3.26755,-2.9941 6.55564,-4.4912 9.86425,-4.4913 0.68357,10e-5 1.32615,0.075 1.92774,0.2256 l -3.60938,2.9532 c -0.72463,-0.2324 -1.43557,-0.3486 -2.13281,-0.3487 -4.06057,10e-5 -7.08205,3.1719 -9.06445,9.5156 l -3.44532,11.0743 m -1.00488,3.1787 c 2.20116,0 4.13573,-0.4922 5.80371,-1.4766 1.68163,-0.998 2.666,-2.2285 2.95313,-3.6914 0.30076,-1.4765 -0.0684,-2.2148 -1.10742,-2.2148 -0.95705,0 -2.16018,0.7041 -3.60938,2.1123 -1.44923,1.3945 -2.79591,3.1514 -4.04004,5.2705 m -15.77051,-1.2715 c 4.18358,-5.7558 7.7451,-8.6338 10.68457,-8.6338 0.76561,0 1.49705,0.1778 2.19434,0.5332 l -3.52734,3.1582 c -0.38284,-0.2461 -0.91604,-0.3691 -1.59961,-0.3691 -1.4219,0 -3.15139,1.1553 -5.18848,3.4658 -2.03712,2.2969 -3.44532,4.6895 -4.22461,7.1777 l -1.55859,5.0039 -3.24024,1.0254 0.18457,-0.6152 0.41016,-1.333 0.43066,-1.333 3.03516,-9.7617 0.32812,-1.0665 c 0.25976,-0.8066 0.4375,-1.4628 0.53321,-1.9687 0.16405,-0.834 0.0137,-1.251 -0.45117,-1.251 -1.09376,0 -2.4131,1.169 -3.95801,3.5069 -0.28712,-0.2598 -0.39649,-0.5264 -0.32813,-0.7998 0.20508,-0.834 1.18261,-1.9346 2.93262,-3.3018 1.76366,-1.3808 3.07616,-2.0713 3.9375,-2.0713 1.1621,0 1.59276,0.7656 1.29199,2.2969 -0.0684,0.3691 -0.20509,0.8682 -0.41015,1.4971 l -0.43067,1.4355 -0.51269,1.7227 -0.53321,1.6816 m -16.09863,2.8506 c -2.05079,2.543 -4.1631,4.6279 -6.33691,6.2549 -2.17384,1.6132 -3.94435,2.4199 -5.31153,2.4199 -1.87305,0 -2.50879,-1.5108 -1.90722,-4.5322 0.83398,-4.1563 2.91894,-7.752 6.25488,-10.7872 3.33592,-3.0488 6.8701,-4.5732 10.60254,-4.5732 1.42185,0 2.59763,0.1778 3.52734,0.5332 -0.12307,0.2461 -0.19826,0.3965 -0.22558,0.4512 l -0.45118,1.0869 c -0.31447,0.752 -0.49221,1.1895 -0.5332,1.3125 l -3.13769,9.0644 -0.43067,1.3125 c -0.43752,1.2989 -0.70412,2.167 -0.7998,2.6045 -0.1094,0.5879 0.007,0.8819 0.34863,0.8819 1.14842,0 2.57713,-1.2852 4.28613,-3.8555 0.32811,0.2188 0.47166,0.4375 0.43067,0.6563 -0.0957,0.4785 -0.87502,1.4423 -2.33789,2.8916 -1.99612,1.9687 -3.67775,2.9531 -5.04493,2.9531 -0.99806,0 -1.3672,-0.6699 -1.10742,-2.0098 0.082,-0.4101 0.24608,-0.9775 0.49219,-1.7021 l 0.5332,-1.6407 0.63575,-1.8046 0.51269,-1.5176 m 2.80957,-8.1416 c -1.10744,-0.6973 -2.29689,-1.0459 -3.56836,-1.0459 -1.91407,0 -3.75294,1.1689 -5.5166,3.5068 -1.76368,2.3379 -2.99415,5.2364 -3.69141,8.6953 -0.35547,1.7774 -0.007,2.666 1.0459,2.666 1.21679,0 2.87109,-0.9296 4.96289,-2.789 2.83007,-2.502 4.82616,-5.4414 5.98828,-8.8184 l 0.7793,-2.2148 m -50.53125,15.7295 3.46582,-3.0147 c 0.64257,0.2598 1.56542,0.4922 2.76856,0.6973 1.13475,-0.6152 1.98241,-1.3945 2.54296,-2.3379 0.56054,-0.957 1.27831,-2.8301 2.15333,-5.6191 l 4.75781,-15.2784 c -6.34377,0.7247 -9.89161,2.96 -10.64356,6.7061 -0.21876,1.1211 -0.1504,2.29 0.20508,3.5068 l -3.9375,3.1172 c -0.17774,-0.6699 -0.12989,-1.6611 0.14356,-2.9736 0.8203,-4.1016 3.04198,-7.2324 6.66503,-9.3926 3.62304,-2.1738 8.44237,-3.2607 14.45801,-3.2607 9.92575,0 14.1982,3.4521 12.81739,10.3564 -0.82036,4.1289 -2.97367,7.9365 -6.45997,11.4229 -4.63479,4.6074 -10.74611,6.9111 -18.33398,6.9111 -3.18556,0 -6.71973,-0.2803 -10.60254,-0.8408 m 19.13379,-26.0244 -4.79883,15.4013 -0.59472,1.9278 c -0.56057,1.791 -1.20315,3.0966 -1.92774,3.917 -0.72462,0.8203 -2.00294,1.7089 -3.83496,2.666 2.91209,0.4101 5.66697,0.6152 8.26465,0.6152 2.4199,0 4.35447,-0.335 5.80371,-1.0049 1.46286,-0.6836 3.00778,-1.9687 4.63477,-3.8555 2.29684,-2.6249 3.7734,-5.5712 4.42968,-8.8388 1.43551,-7.2187 -2.33108,-10.8281 -11.2998,-10.8281 l -0.67676,0 m -46.38867,27.1113 c -3.07618,0 -4.21094,-2.0371 -3.4043,-6.1113 0.65625,-3.2813 2.48828,-6.4395 5.4961,-9.4747 3.02147,-3.0488 5.8242,-4.5732 8.4082,-4.5732 3.11717,0 4.27244,2.0371 3.46582,6.1113 -0.65627,3.295 -2.49514,6.46 -5.5166,9.4952 -3.00783,3.0351 -5.82423,4.5527 -8.44922,4.5527 m 2.93262,-2.2969 c 1.57225,0 3.06248,-0.875 4.4707,-2.625 1.40819,-1.75 2.37889,-3.9306 2.91211,-6.542 0.84764,-4.2656 -0.0547,-6.3984 -2.70703,-6.3984 -1.55861,0 -3.04201,0.8818 -4.4502,2.6455 -1.40821,1.75 -2.37208,3.9238 -2.8916,6.5215 -0.86133,4.2656 0.0273,6.3984 2.66602,6.3984 m -12.53028,-14.9502 -2.83008,9.0645 c -0.50586,1.6269 -0.84082,2.8301 -1.00488,3.6093 -0.30079,1.545 0.0752,2.3174 1.12793,2.3174 1.13476,0 2.49511,-0.9297 4.08106,-2.789 0.15037,0.2597 0.20506,0.4922 0.16406,0.6972 -0.15041,0.7657 -1.0049,1.6817 -2.56348,2.7481 -1.5586,1.0664 -2.82325,1.5996 -3.79394,1.5996 -1.94142,0 -2.66602,-1.2442 -2.17383,-3.7324 0.1914,-0.916 0.60839,-2.3994 1.25097,-4.4502 l 2.80957,-9.0645 -4.32714,0 2.87109,-2.3789 2.19434,0 1.18945,-3.7324 3.19922,-1.0049 -1.45606,4.7373 8.69532,0 -2.8711,2.3789 -6.5625,0 m -27.80859,15.9961 -3.30176,1.251 0.16406,-0.5742 0.47168,-1.5176 0.45117,-1.4356 2.97364,-9.5156 0.34863,-1.0869 c 0.24608,-0.8476 0.42382,-1.5312 0.5332,-2.0508 0.16406,-0.875 0.0273,-1.3125 -0.41015,-1.3125 -1.0254,0 -2.35841,1.1621 -3.99903,3.4863 -0.25977,-0.2597 -0.36914,-0.4853 -0.32812,-0.6767 0.16406,-0.8203 1.13476,-1.9346 2.91211,-3.3428 1.77733,-1.4218 3.09667,-2.1328 3.95801,-2.1328 1.17576,0 1.61326,0.752 1.3125,2.2559 -0.0684,0.3828 -0.20509,0.8955 -0.41016,1.5381 l -0.49219,1.6611 -0.43066,1.3945 -0.47168,1.4561 c 2.10545,-2.4063 4.27244,-4.3887 6.50097,-5.9473 2.2285,-1.5722 4.01951,-2.3584 5.37305,-2.3584 1.32615,0 1.80466,0.9229 1.43555,2.7686 -0.1094,0.5605 -0.34866,1.4013 -0.71777,2.5224 l -2.64551,7.6494 c -0.51955,1.5313 -0.86819,2.7413 -1.0459,3.6299 -0.15041,0.711 -0.0342,1.0664 0.34863,1.0664 0.94334,0 2.35838,-1.2578 4.24512,-3.7734 0.28708,0.2051 0.41013,0.417 0.36914,0.6357 -0.17776,0.8887 -1.17581,2.0576 -2.99414,3.5069 -1.80471,1.4355 -3.18557,2.1533 -4.14258,2.1533 -1.06642,0 -1.44923,-0.7656 -1.14844,-2.2969 0.23241,-1.1211 0.69042,-2.6728 1.37403,-4.6553 l 1.70215,-4.9629 c 0.56052,-1.6132 0.92966,-2.8915 1.10742,-3.8349 0.21873,-1.0801 -0.0479,-1.6201 -0.79981,-1.6201 -1.75002,0 -3.75978,1.1894 -6.02929,3.5683 -2.26955,2.3653 -3.82814,4.9082 -4.67579,7.6289 l -1.53808,4.9219 m -7.01367,-5.25 c 0.32811,0.2188 0.47166,0.4307 0.43066,0.6358 -0.0957,0.4921 -0.88185,1.4628 -2.3584,2.9121 -1.9961,1.9687 -3.67774,2.9531 -5.04492,2.9531 -0.99805,0 -1.36719,-0.6631 -1.10742,-1.9893 0.10937,-0.5605 0.66308,-2.2832 1.66113,-5.1679 l 1.90723,-5.5782 0.49219,-1.415 0.38964,-1.1279 c 0.16406,-0.4785 0.28027,-0.8819 0.34864,-1.21 0.13671,-0.6836 0.0137,-1.0254 -0.36914,-1.0254 -1.06642,0 -2.45411,1.1758 -4.16309,3.5274 -0.20508,-0.2325 -0.28711,-0.4649 -0.24609,-0.6973 0.16405,-0.834 1.15526,-1.9551 2.97363,-3.3633 1.81835,-1.4082 3.18553,-2.1123 4.10156,-2.1123 1.02538,0 1.40136,0.711 1.12793,2.1328 -0.0547,0.2735 -0.2256,0.834 -0.51269,1.6817 l -0.45118,1.374 c -0.041,0.1094 -0.22559,0.6631 -0.55371,1.6611 l -2.03027,5.8652 -0.45117,1.3125 c -0.43751,1.2989 -0.70411,2.167 -0.79981,2.6045 -0.10938,0.5879 0.007,0.8819 0.34864,0.8819 1.14842,0 2.58397,-1.2852 4.30664,-3.8555 m -0.86133,-16.3037 2.58398,-4.2451 c 1.65428,-0.6289 3.08299,-1.4971 4.28614,-2.6045 0.0957,0.1914 0.12302,0.3897 0.082,0.5947 -0.36916,1.8321 -2.68654,3.917 -6.95215,6.2549 m -27.07028,5.5576 -2.83008,9.0645 c -0.50587,1.6269 -0.84083,2.8301 -1.00489,3.6093 -0.30078,1.545 0.0752,2.3174 1.12793,2.3174 1.13476,0 2.49511,-0.9297 4.08106,-2.789 0.15038,0.2597 0.20506,0.4922 0.16406,0.6972 -0.1504,0.7657 -1.00489,1.6817 -2.56347,2.7481 -1.55861,1.0664 -2.82325,1.5996 -3.79395,1.5996 -1.94141,0 -2.66602,-1.2442 -2.17383,-3.7324 0.1914,-0.916 0.60839,-2.3994 1.25098,-4.4502 l 2.80957,-9.0645 -4.32715,0 2.87109,-2.3789 2.19434,0 1.18945,-3.7324 3.19922,-1.0049 -1.45605,4.7373 8.69531,0 -2.87109,2.3789 -6.5625,0 m -27.8086,15.9961 -3.30176,1.251 0.16407,-0.5742 0.47168,-1.5176 0.45117,-1.4356 2.97363,-9.5156 0.34863,-1.0869 c 0.24609,-0.8476 0.42382,-1.5312 0.53321,-2.0508 0.16405,-0.875 0.0273,-1.3125 -0.41016,-1.3125 -1.0254,0 -2.3584,1.1621 -3.99902,3.4863 -0.25977,-0.2597 -0.36915,-0.4853 -0.32813,-0.6767 0.16406,-0.8203 1.13476,-1.9346 2.91211,-3.3428 1.77734,-1.4218 3.09667,-2.1328 3.95801,-2.1328 1.17577,0 1.61327,0.752 1.3125,2.2559 -0.0684,0.3828 -0.20509,0.8955 -0.41016,1.5381 l -0.49218,1.6611 -0.43067,1.3945 -0.47168,1.4561 c 2.10546,-2.4063 4.27245,-4.3887 6.50098,-5.9473 2.22849,-1.5722 4.01951,-2.3584 5.37305,-2.3584 1.32614,0 1.80466,0.9229 1.43554,2.7686 -0.1094,0.5605 -0.34865,1.4013 -0.71777,2.5224 l -2.64551,7.6494 c -0.51955,1.5313 -0.86818,2.7413 -1.0459,3.6299 -0.15041,0.711 -0.0342,1.0664 0.34864,1.0664 0.94333,0 2.35837,-1.2578 4.24511,-3.7734 0.28709,0.2051 0.41013,0.417 0.36914,0.6357 -0.17776,0.8887 -1.1758,2.0576 -2.99414,3.5069 -1.8047,1.4355 -3.18556,2.1533 -4.14258,2.1533 -1.06642,0 -1.44923,-0.7656 -1.14843,-2.2969 0.2324,-1.1211 0.69041,-2.6728 1.37402,-4.6553 l 1.70215,-4.9629 c 0.56053,-1.6132 0.92967,-2.8915 1.10742,-3.8349 0.21873,-1.0801 -0.0479,-1.6201 -0.7998,-1.6201 -1.75002,0 -3.75979,1.1894 -6.0293,3.5683 -2.26954,2.3653 -3.82814,4.9082 -4.67578,7.6289 l -1.53809,4.9219 m -7.56738,-5.8037 c 0.28709,0.2324 0.4033,0.5059 0.34863,0.8203 -0.0957,0.4238 -0.68361,1.1485 -1.76367,2.1738 -2.87111,2.7071 -5.448247,4.0606 -7.731442,4.0606 -1.394537,0 -2.433598,-0.5537 -3.117188,-1.6611 -0.683596,-1.1075 -0.854495,-2.5225 -0.512695,-4.2452 0.628903,-3.1171 2.440424,-6.2685 5.434568,-9.4541 2.994127,-3.1992 5.646467,-4.7988 7.957027,-4.7988 1.66795,0 2.3242,0.8955 1.96875,2.6865 -0.3965,2.0098 -1.76368,3.9717 -4.10156,5.8858 -2.32423,1.914 -4.962897,3.247 -7.916011,3.999 -0.382819,3.2949 0.587883,4.9424 2.912114,4.9424 2.296857,0 4.470677,-1.4697 6.521477,-4.4092 m -8.859373,-3.0352 c 0.369134,0.1368 0.717766,0.2051 1.045896,0.2051 1.69531,0 3.281237,-0.5195 4.757817,-1.5586 1.49022,-1.039 2.37205,-2.2558 2.6455,-3.6504 0.31444,-1.5996 -0.34181,-2.3994 -1.96875,-2.3994 -1.17579,0 -2.37891,0.7041 -3.609367,2.1123 -1.23048,1.3946 -2.18751,3.1582 -2.871096,5.291 m -2.891601,-9.5361 -2.891602,2.8096 c -1.011735,-0.4512 -2.016617,-0.6768 -3.014648,-0.6768 -1.791028,0 -3.356457,0.7588 -4.696289,2.2764 -1.32618,1.5176 -2.255867,3.5957 -2.789063,6.2344 -0.369147,1.8593 -0.293952,3.3564 0.225586,4.4912 0.519524,1.1347 1.380851,1.7021 2.583985,1.7021 2.037097,0 3.903306,-1.333 5.598632,-3.999 0.232407,0.3281 0.321274,0.6357 0.266602,0.9229 -0.232437,1.1347 -1.374038,2.3994 -3.424805,3.7939 -2.037119,1.3809 -3.793953,2.0713 -5.270508,2.0713 -1.42188,0 -2.474613,-0.5674 -3.158203,-1.7022 -0.683596,-1.1484 -0.840823,-2.6318 -0.471679,-4.4502 0.710933,-3.541 2.556634,-6.7607 5.537109,-9.6591 2.980457,-2.8985 5.940415,-4.3477 8.879883,-4.3477 1.066387,0 1.941386,0.1778 2.625,0.5332 m -34.289063,18.5186 3.28125,-2.3174 c 0.847651,1.1347 2.078119,1.7021 3.691407,1.7021 1.96874,0 3.137684,-0.9502 3.506835,-2.8506 0.218739,-1.0527 -0.389659,-2.5224 -1.825195,-4.4091 l -0.922851,-1.21 c -1.353523,-1.791 -1.91407,-3.2402 -1.681641,-4.3477 0.314446,-1.5859 1.26464,-2.9189 2.850586,-3.999 1.585926,-1.08 3.383776,-1.6201 5.393555,-1.6201 1.093733,0 2.249006,0.2051 3.46582,0.6152 l -2.912109,2.2764 c -0.875015,-0.7793 -1.948257,-1.1689 -3.219727,-1.1689 -1.490246,0 -2.365245,0.622 -2.625,1.8662 -0.177744,0.8887 0.389638,2.1943 1.702148,3.917 l 1.004883,1.3535 c 1.49022,1.9687 2.119126,3.5547 1.886719,4.7578 -0.355483,1.7227 -1.490247,3.2471 -3.404297,4.5732 -1.914072,1.3125 -3.951179,1.9688 -6.111328,1.9688 -1.531254,0 -2.891604,-0.3692 -4.081055,-1.1074 m -0.717773,-5.9473 c 0.287093,0.2324 0.403304,0.5059 0.348633,0.8203 -0.09572,0.4238 -0.68361,1.1485 -1.763672,2.1738 -2.871106,2.7071 -5.448251,4.0606 -7.731446,4.0606 -1.394536,0 -2.433598,-0.5537 -3.117187,-1.6611 -0.683597,-1.1075 -0.854495,-2.5225 -0.512695,-4.2452 0.628902,-3.1171 2.440424,-6.2685 5.43457,-9.4541 2.994129,-3.1992 5.64647,-4.7988 7.957031,-4.7988 1.667951,0 2.3242,0.8955 1.96875,2.6865 -0.396502,2.0098 -1.763688,3.9717 -4.101562,5.8858 -2.324231,1.914 -4.9629,3.247 -7.916016,3.999 -0.382819,3.2949 0.587884,4.9424 2.912109,4.9424 2.296864,0 4.47069,-1.4697 6.521485,-4.4092 m -8.859375,-3.0352 c 0.369133,0.1368 0.717765,0.2051 1.045898,0.2051 1.695303,0 3.281239,-0.5195 4.757813,-1.5586 1.49022,-1.039 2.372055,-2.2558 2.645508,-3.6504 0.314437,-1.5996 -0.341812,-2.3994 -1.96875,-2.3994 -1.175794,0 -2.378918,0.7041 -3.609375,2.1123 -1.230478,1.3946 -2.187508,3.1582 -2.871094,5.291 m -38.267578,9.003 3.46582,-3.0147 c 0.64257,0.2598 1.565421,0.4922 2.768555,0.6973 1.134754,-0.6152 1.982409,-1.3945 2.542968,-2.3379 0.560534,-0.957 1.278307,-2.8301 2.153321,-5.6191 l 4.757812,-15.2784 c -6.343763,0.7247 -9.891611,2.96 -10.643554,6.7061 -0.218759,1.1211 -0.1504,2.29 0.205078,3.5068 l -3.9375,3.1172 c -0.17774,-0.6699 -0.129888,-1.6611 0.143554,-2.9736 0.820306,-4.1016 3.041984,-7.2324 6.665039,-9.3926 3.623031,-2.1738 8.442363,-3.2607 14.458008,-3.2607 9.925745,0 14.198202,3.4521 12.817383,10.3564 -0.820351,4.1289 -2.973669,7.9365 -6.459961,11.4229 -4.634794,4.6074 -10.746116,6.9111 -18.333984,6.9111 -3.185559,0 -6.719735,-0.2803 -10.602539,-0.8408 m 19.133789,-26.0244 -4.798828,15.4013 -0.594727,1.9278 c -0.560564,1.791 -1.203142,3.0966 -1.927734,3.917 -0.724625,0.8203 -2.002944,1.7089 -3.834961,2.666 2.912094,0.4101 5.666974,0.6152 8.264648,0.6152 2.419899,0 4.354468,-0.335 5.803711,-1.0049 1.462863,-0.6836 3.007783,-1.9687 4.634766,-3.8555 2.296842,-2.6249 3.773403,-5.5712 4.429687,-8.8388 1.43551,-7.2187 -2.331087,-10.8281 -11.299804,-10.8281 l -0.676758,0" />
  </g>
  <g
     inkscape:groupmode="layer"
     id="layer4"
     inkscape:label="text outline">
    <path
       id="path3843"
       style="fill:url(#linearGradient4004);fill-opacity:1;stroke:#000000;stroke-width:3;stroke-linecap:butt;stroke-linejoin:miter;stroke-miterlimit:40;stroke-opacity:1;stroke-dasharray:none;display:inline"
       d="m 440.9082,17.892497 6,0 10,0 -2,6 c 0,0 -2.1828,-3.496665 -4,-4 -1.3245,-0.366865 -2.87657,0.208297 -4,1 -0.98241,0.692324 -1.42052,1.947076 -2,3 -1.58289,2.876148 -2.97213,5.882105 -4,9 -0.96219,2.918671 -1.66466,5.945169 -2,9 -0.10912,0.994029 -0.58471,2.188758 0,3 0.61634,0.855124 1.95104,1.103868 3,1 2.67434,-0.264812 7,-4 7,-4 l -2,6 -10,0 -6,0 c 0,0 2.04568,-3.977806 3,-6 1.40112,-2.968947 2.97213,-5.882105 4,-9 0.96219,-2.918671 1.41384,-5.983236 2,-9 0.38673,-1.990365 1,-6 1,-6 z m -3,0 c 0,0 -2.04568,3.977806 -3,6 -1.40112,2.968947 -2.97213,5.882105 -4,9 -0.96219,2.918671 -1.41384,5.983236 -2,9 -0.38673,1.990365 -1,6 -1,6 l -6,0 -10,0 1,-3 1,-3 c 0,0 2.1828,3.496665 4,4 1.3245,0.366865 2.87657,-0.208297 4,-1 0.98241,-0.692324 1.42052,-1.947076 2,-3 1.58289,-2.876148 2.97213,-5.882105 4,-9 0.96219,-2.918671 1.66466,-5.945169 2,-9 0.10912,-0.994029 0.58471,-2.188758 0,-3 -0.61634,-0.855124 -1.95104,-1.103868 -3,-1 -2.67434,0.264812 -7,4 -7,4 l 2,-6 10,0 6,0 z m -52.81543,29.425823 3.28125,-2.3174 c 0.84765,1.1347 2.07812,1.7021 3.69141,1.7021 1.96874,0 3.13768,-0.9502 3.50683,-2.8506 0.21874,-1.0527 -0.38966,-2.5224 -1.82519,-4.4091 l -0.92285,-1.21 c -1.35353,-1.791 -1.91407,-3.2402 -1.68165,-4.3477 0.31445,-1.5859 1.26465,-2.9189 2.85059,-3.999 1.58593,-1.08 3.38378,-1.6201 5.39356,-1.6201 1.09373,0 2.249,0.2051 3.46582,0.6152 l -2.91211,2.2764 c -0.87502,-0.7793 -1.94826,-1.1689 -3.21973,-1.1689 -1.49025,0 -2.36524,0.622 -2.625,1.8662 -0.17774,0.8887 0.38964,2.1943 1.70215,3.917 l 1.00488,1.3535 c 1.49022,1.9687 2.11913,3.5547 1.88672,4.7578 -0.35548,1.7227 -1.49025,3.2471 -3.4043,4.5732 -1.91407,1.3125 -3.95118,1.9688 -6.11133,1.9688 -1.53125,0 -2.8916,-0.3692 -4.08105,-1.1074 m -15.01172,0 3.28125,-2.3174 c 0.84765,1.1347 2.07812,1.7021 3.69141,1.7021 1.96874,0 3.13768,-0.9502 3.50683,-2.8506 0.21874,-1.0527 -0.38966,-2.5224 -1.82519,-4.4091 l -0.92285,-1.21 c -1.35353,-1.791 -1.91407,-3.2402 -1.68164,-4.3477 0.31444,-1.5859 1.26464,-2.9189 2.85058,-3.999 1.58593,-1.08 3.38378,-1.6201 5.39356,-1.6201 1.09373,0 2.249,0.2051 3.46582,0.6152 l -2.91211,2.2764 c -0.87502,-0.7793 -1.94826,-1.1689 -3.21973,-1.1689 -1.49024,0 -2.36524,0.622 -2.625,1.8662 -0.17774,0.8887 0.38964,2.1943 1.70215,3.917 l 1.00488,1.3535 c 1.49022,1.9687 2.11913,3.5547 1.88672,4.7578 -0.35548,1.7227 -1.49025,3.2471 -3.4043,4.5732 -1.91407,1.3125 -3.95117,1.9688 -6.11132,1.9688 -1.53126,0 -2.89161,-0.3692 -4.08106,-1.1074 m -0.71777,-5.9473 c 0.28709,0.2324 0.4033,0.5059 0.34863,0.8203 -0.0957,0.4238 -0.68361,1.1485 -1.76367,2.1738 -2.87111,2.7071 -5.44825,4.0606 -7.73145,4.0606 -1.39453,0 -2.43359,-0.5537 -3.11718,-1.6611 -0.6836,-1.1075 -0.8545,-2.5225 -0.5127,-4.2452 0.6289,-3.1171 2.44043,-6.2685 5.43457,-9.4541 2.99413,-3.1992 5.64647,-4.7988 7.95703,-4.7988 1.66795,0 2.3242,0.8955 1.96875,2.6865 -0.3965,2.0098 -1.76369,3.9717 -4.10156,5.8858 -2.32423,1.914 -4.9629,3.247 -7.91602,3.999 -0.38281,3.2949 0.58789,4.9424 2.91211,4.9424 2.29687,0 4.47069,-1.4697 6.52149,-4.4092 m -8.85938,-3.0352 c 0.36914,0.1368 0.71777,0.2051 1.0459,0.2051 1.6953,0 3.28124,-0.5195 4.75781,-1.5586 1.49022,-1.039 2.37206,-2.2558 2.64551,-3.6504 0.31444,-1.5996 -0.34181,-2.3994 -1.96875,-2.3994 -1.17579,0 -2.37892,0.7041 -3.60937,2.1123 -1.23048,1.3946 -2.18751,3.1582 -2.8711,5.291 m -22.94824,8.8389 -3.30176,1.251 0.16407,-0.5742 0.47168,-1.5176 0.45117,-1.4356 2.97363,-9.5156 0.34863,-1.0869 c 0.24609,-0.8476 0.42382,-1.5312 0.53321,-2.0508 0.16405,-0.875 0.0273,-1.3125 -0.41016,-1.3125 -1.0254,0 -2.35841,1.1621 -3.99902,3.4863 -0.25977,-0.2597 -0.36915,-0.4853 -0.32813,-0.6767 0.16406,-0.8203 1.13476,-1.9346 2.91211,-3.3428 1.77733,-1.4218 3.09667,-2.1328 3.95801,-2.1328 1.17577,0 1.61327,0.752 1.3125,2.2559 -0.0684,0.3828 -0.20509,0.8955 -0.41016,1.5381 l -0.49219,1.6611 -0.43066,1.3945 -0.47168,1.4561 c 2.10546,-2.4063 4.27245,-4.3887 6.50098,-5.9473 2.22849,-1.5722 4.01951,-2.3584 5.37304,-2.3584 1.32615,0 1.80467,0.9229 1.43555,2.7686 -0.1094,0.5605 -0.34866,1.4013 -0.71777,2.5224 l -2.64551,7.6494 c -0.51955,1.5313 -0.86818,2.7413 -1.0459,3.6299 -0.15041,0.711 -0.0342,1.0664 0.34863,1.0664 0.94334,0 2.35838,-1.2578 4.24512,-3.7734 0.28709,0.2051 0.41013,0.417 0.36914,0.6357 -0.17776,0.8887 -1.1758,2.0576 -2.99414,3.5069 -1.80471,1.4355 -3.18556,2.1533 -4.14258,2.1533 -1.06642,0 -1.44923,-0.7656 -1.14843,-2.2969 0.2324,-1.1211 0.69041,-2.6728 1.37402,-4.6553 l 1.70215,-4.9629 c 0.56052,-1.6132 0.92966,-2.8915 1.10742,-3.8349 0.21873,-1.0801 -0.0479,-1.6201 -0.79981,-1.6201 -1.75001,0 -3.75978,1.1894 -6.02929,3.5683 -2.26954,2.3653 -3.82814,4.9082 -4.67578,7.6289 l -1.53809,4.9219 m -17.00098,-12.1816 c 1.4082,-1.9141 3.01464,-3.5137 4.81934,-4.7989 1.80467,-1.2851 3.35643,-1.9277 4.65527,-1.9277 1.74998,0 2.44725,0.9024 2.0918,2.707 -0.34182,1.7227 -1.38772,3.3018 -3.13769,4.7373 -1.73635,1.4219 -3.86232,2.4473 -6.37793,3.0762 1.66795,4.6621 3.13768,6.9932 4.40918,6.9932 0.91599,0 2.03709,-0.7998 3.36328,-2.3994 0.27341,0.2324 0.38279,0.458 0.32812,0.6767 -0.12307,0.6426 -0.92971,1.5244 -2.41992,2.6455 -1.47658,1.1211 -2.59767,1.6953 -3.36328,1.7227 -1.38087,0.068 -3.12404,-2.8369 -5.22949,-8.7158 l -0.32813,-0.9229 -2.60449,8.3877 -3.30176,1.251 0.16406,-0.5742 0.47168,-1.5176 0.45118,-1.4356 5.59863,-17.9648 c 1.32616,-4.2519 3.6162,-7.875 6.87012,-10.8691 3.26755,-2.9941 6.55564,-4.4912 9.86425,-4.4913 0.68357,10e-5 1.32615,0.075 1.92774,0.2256 l -3.60938,2.9532 c -0.72463,-0.2324 -1.43557,-0.3486 -2.13281,-0.3487 -4.06057,1e-4 -7.08205,3.1719 -9.06445,9.5156 l -3.44532,11.0743 m -1.00488,3.1787 c 2.20116,0 4.13573,-0.4922 5.80371,-1.4766 1.68163,-0.998 2.666,-2.2285 2.95313,-3.6914 0.30076,-1.4765 -0.0684,-2.2148 -1.10742,-2.2148 -0.95705,0 -2.16018,0.7041 -3.60938,2.1123 -1.44923,1.3945 -2.79591,3.1514 -4.04004,5.2705 m -15.77051,-1.2715 c 4.18358,-5.7558 7.7451,-8.6338 10.68457,-8.6338 0.76561,0 1.49705,0.1778 2.19434,0.5332 l -3.52734,3.1582 c -0.38284,-0.2461 -0.91604,-0.3691 -1.59961,-0.3691 -1.4219,0 -3.15139,1.1553 -5.18848,3.4658 -2.03712,2.2969 -3.44532,4.6895 -4.22461,7.1777 l -1.55859,5.0039 -3.24024,1.0254 0.18457,-0.6152 0.41016,-1.333 0.43066,-1.333 3.03516,-9.7617 0.32812,-1.0665 c 0.25976,-0.8066 0.4375,-1.4628 0.53321,-1.9687 0.16405,-0.834 0.0137,-1.251 -0.45117,-1.251 -1.09376,0 -2.4131,1.169 -3.95801,3.5069 -0.28712,-0.2598 -0.39649,-0.5264 -0.32813,-0.7998 0.20508,-0.834 1.18261,-1.9346 2.93262,-3.3018 1.76366,-1.3808 3.07616,-2.0713 3.9375,-2.0713 1.1621,0 1.59276,0.7656 1.29199,2.2969 -0.0684,0.3691 -0.20509,0.8682 -0.41015,1.4971 l -0.43067,1.4355 -0.51269,1.7227 -0.53321,1.6816 m -16.09863,2.8506 c -2.05079,2.543 -4.1631,4.6279 -6.33691,6.2549 -2.17384,1.6132 -3.94435,2.4199 -5.31153,2.4199 -1.87305,0 -2.50879,-1.5108 -1.90722,-4.5322 0.83398,-4.1563 2.91894,-7.752 6.25488,-10.7872 3.33592,-3.0488 6.8701,-4.5732 10.60254,-4.5732 1.42185,0 2.59763,0.1778 3.52734,0.5332 -0.12307,0.2461 -0.19826,0.3965 -0.22558,0.4512 l -0.45118,1.0869 c -0.31447,0.752 -0.49221,1.1895 -0.5332,1.3125 l -3.13769,9.0644 -0.43067,1.3125 c -0.43752,1.2989 -0.70412,2.167 -0.7998,2.6045 -0.1094,0.5879 0.007,0.8819 0.34863,0.8819 1.14842,0 2.57713,-1.2852 4.28613,-3.8555 0.32811,0.2188 0.47166,0.4375 0.43067,0.6563 -0.0957,0.4785 -0.87502,1.4423 -2.33789,2.8916 -1.99612,1.9687 -3.67775,2.9531 -5.04493,2.9531 -0.99806,0 -1.3672,-0.6699 -1.10742,-2.0098 0.082,-0.4101 0.24608,-0.9775 0.49219,-1.7021 l 0.5332,-1.6407 0.63575,-1.8046 0.51269,-1.5176 m 2.80957,-8.1416 c -1.10744,-0.6973 -2.29689,-1.0459 -3.56836,-1.0459 -1.91407,0 -3.75294,1.1689 -5.5166,3.5068 -1.76368,2.3379 -2.99415,5.2364 -3.69141,8.6953 -0.35547,1.7774 -0.007,2.666 1.0459,2.666 1.21679,0 2.87109,-0.9296 4.96289,-2.789 2.83007,-2.502 4.82616,-5.4414 5.98828,-8.8184 l 0.7793,-2.2148 m -50.53125,15.7295 3.46582,-3.0147 c 0.64257,0.2598 1.56542,0.4922 2.76856,0.6973 1.13475,-0.6152 1.98241,-1.3945 2.54296,-2.3379 0.56054,-0.957 1.27831,-2.8301 2.15333,-5.6191 l 4.75781,-15.2784 c -6.34377,0.7247 -9.89161,2.96 -10.64356,6.7061 -0.21876,1.1211 -0.1504,2.29 0.20508,3.5068 l -3.9375,3.1172 c -0.17774,-0.6699 -0.12989,-1.6611 0.14356,-2.9736 0.8203,-4.1016 3.04198,-7.2324 6.66503,-9.3926 3.62304,-2.1738 8.44237,-3.2607 14.45801,-3.2607 9.92575,0 14.1982,3.4521 12.81739,10.3564 -0.82036,4.1289 -2.97367,7.9365 -6.45997,11.4229 -4.63479,4.6074 -10.74611,6.9111 -18.33398,6.9111 -3.18556,0 -6.71973,-0.2803 -10.60254,-0.8408 m 19.13379,-26.0244 -4.79883,15.4013 -0.59472,1.9278 c -0.56057,1.791 -1.20315,3.0966 -1.92774,3.917 -0.72462,0.8203 -2.00294,1.7089 -3.83496,2.666 2.91209,0.4101 5.66697,0.6152 8.26465,0.6152 2.4199,0 4.35447,-0.335 5.80371,-1.0049 1.46286,-0.6836 3.00778,-1.9687 4.63477,-3.8555 2.29684,-2.6249 3.7734,-5.5712 4.42968,-8.8388 1.43551,-7.2187 -2.33108,-10.8281 -11.2998,-10.8281 l -0.67676,0 m -46.38867,27.1113 c -3.07618,0 -4.21094,-2.0371 -3.4043,-6.1113 0.65625,-3.2813 2.48828,-6.4395 5.4961,-9.4747 3.02147,-3.0488 5.8242,-4.5732 8.4082,-4.5732 3.11717,0 4.27244,2.0371 3.46582,6.1113 -0.65627,3.295 -2.49514,6.46 -5.5166,9.4952 -3.00783,3.0351 -5.82423,4.5527 -8.44922,4.5527 m 2.93262,-2.2969 c 1.57225,0 3.06248,-0.875 4.4707,-2.625 1.40819,-1.75 2.37889,-3.9306 2.91211,-6.542 0.84764,-4.2656 -0.0547,-6.3984 -2.70703,-6.3984 -1.55861,0 -3.04201,0.8818 -4.4502,2.6455 -1.40821,1.75 -2.37208,3.9238 -2.8916,6.5215 -0.86133,4.2656 0.0273,6.3984 2.66602,6.3984 m -12.53028,-14.9502 -2.83008,9.0645 c -0.50586,1.6269 -0.84082,2.8301 -1.00488,3.6093 -0.30079,1.545 0.0752,2.3174 1.12793,2.3174 1.13476,0 2.49511,-0.9297 4.08106,-2.789 0.15037,0.2597 0.20506,0.4922 0.16406,0.6972 -0.15041,0.7657 -1.0049,1.6817 -2.56348,2.7481 -1.5586,1.0664 -2.82325,1.5996 -3.79394,1.5996 -1.94142,0 -2.66602,-1.2442 -2.17383,-3.7324 0.1914,-0.916 0.60839,-2.3994 1.25097,-4.4502 l 2.80957,-9.0645 -4.32714,0 2.87109,-2.3789 2.19434,0 1.18945,-3.7324 3.19922,-1.0049 -1.45606,4.7373 8.69532,0 -2.8711,2.3789 -6.5625,0 m -27.80859,15.9961 -3.30176,1.251 0.16406,-0.5742 0.47168,-1.5176 0.45117,-1.4356 2.97364,-9.5156 0.34863,-1.0869 c 0.24608,-0.8476 0.42382,-1.5312 0.5332,-2.0508 0.16406,-0.875 0.0273,-1.3125 -0.41015,-1.3125 -1.0254,0 -2.35841,1.1621 -3.99903,3.4863 -0.25977,-0.2597 -0.36914,-0.4853 -0.32812,-0.6767 0.16406,-0.8203 1.13476,-1.9346 2.91211,-3.3428 1.77733,-1.4218 3.09667,-2.1328 3.95801,-2.1328 1.17576,0 1.61326,0.752 1.3125,2.2559 -0.0684,0.3828 -0.20509,0.8955 -0.41016,1.5381 l -0.49219,1.6611 -0.43066,1.3945 -0.47168,1.4561 c 2.10545,-2.4063 4.27244,-4.3887 6.50097,-5.9473 2.2285,-1.5722 4.01951,-2.3584 5.37305,-2.3584 1.32615,0 1.80466,0.9229 1.43555,2.7686 -0.1094,0.5605 -0.34866,1.4013 -0.71777,2.5224 l -2.64551,7.6494 c -0.51955,1.5313 -0.86819,2.7413 -1.0459,3.6299 -0.15041,0.711 -0.0342,1.0664 0.34863,1.0664 0.94334,0 2.35838,-1.2578 4.24512,-3.7734 0.28708,0.2051 0.41013,0.417 0.36914,0.6357 -0.17776,0.8887 -1.17581,2.0576 -2.99414,3.5069 -1.80471,1.4355 -3.18557,2.1533 -4.14258,2.1533 -1.06642,0 -1.44923,-0.7656 -1.14844,-2.2969 0.23241,-1.1211 0.69042,-2.6728 1.37403,-4.6553 l 1.70215,-4.9629 c 0.56052,-1.6132 0.92966,-2.8915 1.10742,-3.8349 0.21873,-1.0801 -0.0479,-1.6201 -0.79981,-1.6201 -1.75002,0 -3.75978,1.1894 -6.02929,3.5683 -2.26955,2.3653 -3.82814,4.9082 -4.67579,7.6289 l -1.53808,4.9219 m -7.01367,-5.25 c 0.32811,0.2188 0.47166,0.4307 0.43066,0.6358 -0.0957,0.4921 -0.88185,1.4628 -2.3584,2.9121 -1.9961,1.9687 -3.67774,2.9531 -5.04492,2.9531 -0.99805,0 -1.36719,-0.6631 -1.10742,-1.9893 0.10937,-0.5605 0.66308,-2.2832 1.66113,-5.1679 l 1.90723,-5.5782 0.49219,-1.415 0.38964,-1.1279 c 0.16406,-0.4785 0.28027,-0.8819 0.34864,-1.21 0.13671,-0.6836 0.0137,-1.0254 -0.36914,-1.0254 -1.06642,0 -2.45411,1.1758 -4.16309,3.5274 -0.20508,-0.2325 -0.28711,-0.4649 -0.24609,-0.6973 0.16405,-0.834 1.15526,-1.9551 2.97363,-3.3633 1.81835,-1.4082 3.18553,-2.1123 4.10156,-2.1123 1.02538,0 1.40136,0.711 1.12793,2.1328 -0.0547,0.2735 -0.2256,0.834 -0.51269,1.6817 l -0.45118,1.374 c -0.041,0.1094 -0.22559,0.6631 -0.55371,1.6611 l -2.03027,5.8652 -0.45117,1.3125 c -0.43751,1.2989 -0.70411,2.167 -0.79981,2.6045 -0.10938,0.5879 0.007,0.8819 0.34864,0.8819 1.14842,0 2.58397,-1.2852 4.30664,-3.8555 m -0.86134,-16.3037 2.58399,-4.2451 c 1.65428,-0.6289 3.08299,-1.4971 4.28614,-2.6045 0.0957,0.1914 0.12302,0.3897 0.082,0.5947 -0.36916,1.8321 -2.68652,3.917 -6.95213,6.2549 z m -27.0703,5.5576 -2.83008,9.0645 c -0.50587,1.6269 -0.84083,2.8301 -1.00489,3.6093 -0.30078,1.545 0.0752,2.3174 1.12793,2.3174 1.13476,0 2.49511,-0.9297 4.08106,-2.789 0.15038,0.2597 0.20506,0.4922 0.16406,0.6972 -0.1504,0.7657 -1.00489,1.6817 -2.56347,2.7481 -1.55861,1.0664 -2.82325,1.5996 -3.79395,1.5996 -1.94141,0 -2.66602,-1.2442 -2.17383,-3.7324 0.1914,-0.916 0.60839,-2.3994 1.25098,-4.4502 l 2.80957,-9.0645 -4.32715,0 2.87109,-2.3789 2.19434,0 1.18945,-3.7324 3.19922,-1.0049 -1.45605,4.7373 8.69531,0 -2.87109,2.3789 -6.5625,0 m -27.8086,15.9961 -3.30176,1.251 0.16407,-0.5742 0.47168,-1.5176 0.45117,-1.4356 2.97363,-9.5156 0.34863,-1.0869 c 0.24609,-0.8476 0.42382,-1.5312 0.53321,-2.0508 0.16405,-0.875 0.0273,-1.3125 -0.41016,-1.3125 -1.0254,0 -2.3584,1.1621 -3.99902,3.4863 -0.25977,-0.2597 -0.36915,-0.4853 -0.32813,-0.6767 0.16406,-0.8203 1.13476,-1.9346 2.91211,-3.3428 1.77734,-1.4218 3.09667,-2.1328 3.95801,-2.1328 1.17577,0 1.61327,0.752 1.3125,2.2559 -0.0684,0.3828 -0.20509,0.8955 -0.41016,1.5381 l -0.49218,1.6611 -0.43067,1.3945 -0.47168,1.4561 c 2.10546,-2.4063 4.27245,-4.3887 6.50098,-5.9473 2.22849,-1.5722 4.01951,-2.3584 5.37305,-2.3584 1.32614,0 1.80466,0.9229 1.43554,2.7686 -0.1094,0.5605 -0.34865,1.4013 -0.71777,2.5224 l -2.64551,7.6494 c -0.51955,1.5313 -0.86818,2.7413 -1.0459,3.6299 -0.15041,0.711 -0.0342,1.0664 0.34864,1.0664 0.94333,0 2.35837,-1.2578 4.24511,-3.7734 0.28709,0.2051 0.41013,0.417 0.36914,0.6357 -0.17776,0.8887 -1.1758,2.0576 -2.99414,3.5069 -1.8047,1.4355 -3.18556,2.1533 -4.14258,2.1533 -1.06642,0 -1.44923,-0.7656 -1.14843,-2.2969 0.2324,-1.1211 0.69041,-2.6728 1.37402,-4.6553 l 1.70215,-4.9629 c 0.56053,-1.6132 0.92967,-2.8915 1.10742,-3.8349 0.21873,-1.0801 -0.0479,-1.6201 -0.7998,-1.6201 -1.75002,0 -3.75979,1.1894 -6.0293,3.5683 -2.26954,2.3653 -3.82814,4.9082 -4.67578,7.6289 l -1.53809,4.9219 m -7.56738,-5.8037 c 0.28709,0.2324 0.4033,0.5059 0.34863,0.8203 -0.0957,0.4238 -0.68361,1.1485 -1.76367,2.1738 -2.87111,2.7071 -5.448247,4.0606 -7.731442,4.0606 -1.394537,0 -2.433598,-0.5537 -3.117188,-1.6611 -0.683596,-1.1075 -0.854495,-2.5225 -0.512695,-4.2452 0.628903,-3.1171 2.440424,-6.2685 5.434568,-9.4541 2.994127,-3.1992 5.646467,-4.7988 7.957027,-4.7988 1.66795,0 2.3242,0.8955 1.96875,2.6865 -0.3965,2.0098 -1.76368,3.9717 -4.10156,5.8858 -2.32423,1.914 -4.962897,3.247 -7.916011,3.999 -0.382819,3.2949 0.587883,4.9424 2.912114,4.9424 2.296857,0 4.470677,-1.4697 6.521477,-4.4092 m -8.859373,-3.0352 c 0.369134,0.1368 0.717766,0.2051 1.045896,0.2051 1.69531,0 3.281237,-0.5195 4.757817,-1.5586 1.49022,-1.039 2.37205,-2.2558 2.6455,-3.6504 0.31444,-1.5996 -0.34181,-2.3994 -1.96875,-2.3994 -1.17579,0 -2.37891,0.7041 -3.609367,2.1123 -1.23048,1.3946 -2.18751,3.1582 -2.871096,5.291 m -2.891601,-9.5361 -2.891602,2.8096 c -1.011735,-0.4512 -2.016617,-0.6768 -3.014648,-0.6768 -1.791028,0 -3.356457,0.7588 -4.696289,2.2764 -1.32618,1.5176 -2.255867,3.5957 -2.789063,6.2344 -0.369147,1.8593 -0.293952,3.3564 0.225586,4.4912 0.519524,1.1347 1.380851,1.7021 2.583985,1.7021 2.037097,0 3.903306,-1.333 5.598632,-3.999 0.232407,0.3281 0.321274,0.6357 0.266602,0.9229 -0.232437,1.1347 -1.374038,2.3994 -3.424805,3.7939 -2.037119,1.3809 -3.793953,2.0713 -5.270508,2.0713 -1.42188,0 -2.474613,-0.5674 -3.158203,-1.7022 -0.683596,-1.1484 -0.840823,-2.6318 -0.471679,-4.4502 0.710933,-3.541 2.556634,-6.7607 5.537109,-9.6591 2.980457,-2.8985 5.940415,-4.3477 8.879883,-4.3477 1.066387,0 1.941386,0.1778 2.625,0.5332 m -34.289063,18.5186 3.28125,-2.3174 c 0.847651,1.1347 2.078119,1.7021 3.691407,1.7021 1.96874,0 3.137684,-0.9502 3.506835,-2.8506 0.218739,-1.0527 -0.389659,-2.5224 -1.825195,-4.4091 l -0.922851,-1.21 c -1.353523,-1.791 -1.91407,-3.2402 -1.681641,-4.3477 0.314446,-1.5859 1.26464,-2.9189 2.850586,-3.999 1.585926,-1.08 3.383776,-1.6201 5.393555,-1.6201 1.093733,0 2.249006,0.2051 3.46582,0.6152 l -2.912109,2.2764 c -0.875015,-0.7793 -1.948257,-1.1689 -3.219727,-1.1689 -1.490246,0 -2.365245,0.622 -2.625,1.8662 -0.177744,0.8887 0.389638,2.1943 1.702148,3.917 l 1.004883,1.3535 c 1.49022,1.9687 2.119126,3.5547 1.886719,4.7578 -0.355483,1.7227 -1.490247,3.2471 -3.404297,4.5732 -1.914072,1.3125 -3.951179,1.9688 -6.111328,1.9688 -1.531254,0 -2.891604,-0.3692 -4.081055,-1.1074 m -0.717773,-5.9473 c 0.287093,0.2324 0.403304,0.5059 0.348633,0.8203 -0.09572,0.4238 -0.68361,1.1485 -1.763672,2.1738 -2.871106,2.7071 -5.448251,4.0606 -7.731446,4.0606 -1.394536,0 -2.433598,-0.5537 -3.117187,-1.6611 -0.683597,-1.1075 -0.854495,-2.5225 -0.512695,-4.2452 0.628902,-3.1171 2.440424,-6.2685 5.43457,-9.4541 2.994129,-3.1992 5.64647,-4.7988 7.957031,-4.7988 1.667951,0 2.3242,0.8955 1.96875,2.6865 -0.396502,2.0098 -1.763688,3.9717 -4.101562,5.8858 -2.324231,1.914 -4.9629,3.247 -7.916016,3.999 -0.382819,3.2949 0.587884,4.9424 2.912109,4.9424 2.296864,0 4.47069,-1.4697 6.521485,-4.4092 m -8.859375,-3.0352 c 0.369133,0.1368 0.717765,0.2051 1.045898,0.2051 1.695303,0 3.281239,-0.5195 4.757813,-1.5586 1.49022,-1.039 2.372055,-2.2558 2.645508,-3.6504 0.314437,-1.5996 -0.341812,-2.3994 -1.96875,-2.3994 -1.175794,0 -2.378918,0.7041 -3.609375,2.1123 -1.230478,1.3946 -2.187508,3.1582 -2.871094,5.291 m -38.267578,9.003 3.46582,-3.0147 c 0.64257,0.2598 1.565421,0.4922 2.768555,0.6973 1.134754,-0.6152 1.982409,-1.3945 2.542968,-2.3379 0.560534,-0.957 1.278307,-2.8301 2.153321,-5.6191 l 4.757812,-15.2784 c -6.343763,0.7247 -9.891611,2.96 -10.643554,6.7061 -0.218759,1.1211 -0.1504,2.29 0.205078,3.5068 l -3.9375,3.1172 c -0.17774,-0.6699 -0.129888,-1.6611 0.143554,-2.9736 0.820306,-4.1016 3.041984,-7.2324 6.665039,-9.3926 3.623031,-2.1738 8.442363,-3.2607 14.458008,-3.2607 9.925745,0 14.198202,3.4521 12.817383,10.3564 -0.820351,4.1289 -2.973669,7.9365 -6.459961,11.4229 -4.634794,4.6074 -10.746116,6.9111 -18.333984,6.9111 -3.185559,0 -6.719735,-0.2803 -10.602539,-0.8408 m 19.133789,-26.0244 -4.798828,15.4013 -0.594727,1.9278 c -0.560564,1.791 -1.203142,3.0966 -1.927734,3.917 -0.724625,0.8203 -2.002944,1.7089 -3.834961,2.666 2.912094,0.4101 5.666974,0.6152 8.264648,0.6152 2.419899,0 4.354468,-0.335 5.803711,-1.0049 1.462863,-0.6836 3.007783,-1.9687 4.634766,-3.8555 2.296842,-2.6249 3.773403,-5.5712 4.429687,-8.8388 1.43551,-7.2187 -2.331087,-10.8281 -11.299804,-10.8281 l -0.676758,0"
       sodipodi:nodetypes="ccccsssssssccccsssccssscccccsssssssccccccsccccssccssccccscccsccccssccssccccsccscssccssccsccscssccccccccccscscsccccccssccsscsssccccsccccsssscscscccccccccccsccscccscscccsccscccccccccsscssssccccccsccsccccccsscscsscccccssssccccccscccccccsccsccccscscccccccssccccscsccccccscsssccccccccccccccccccccscscsccccccssccsscsssccccsccccscssccccsscsssscccccssccccsccccscsssccccccccccccccccccccscscsccccccssccsscsssccccsccccscssccssccsccscssccccsccsscsssscsscccsccccssccssccccsccscssccssccsccscsscccccscccccccsccsccccscsccccc" />
  </g>
  <g
     inkscape:groupmode="layer"
     id="layer2"
     inkscape:label="text fill"
     style="display:inline"
     sodipodi:insensitive="true">
    <text
       sodipodi:linespacing="125%"
       id="text3617"
       y="47.892502"
       x="6.9082031"
       style="font-size:42px;font-style:italic;font-variant:normal;font-weight:normal;font-stretch:normal;text-align:start;line-height:125%;writing-mode:lr-tb;text-anchor:start;fill:url(#linearGradient3940);fill-opacity:1;stroke:none;font-family:Apple Chancery;-inkscape-font-specification:Apple Chancery Italic"
       xml:space="preserve"><tspan
         style="font-size:42px;font-style:italic;font-variant:normal;font-weight:normal;font-stretch:normal;text-align:start;line-height:125%;writing-mode:lr-tb;text-anchor:start;fill:url(#linearGradient3940);fill-opacity:1;stroke:none;font-family:Apple Chancery;-inkscape-font-specification:Apple Chancery Italic"
         y="47.892502"
         x="6.9082031"
         id="tspan3619"
         sodipodi:role="line">Descent into Darkness</tspan></text>
    <path
       id="path3831"
       style="fill:url(#linearGradient3938);fill-opacity:1;stroke:none"
       d="m 440.9082,17.892497 6,0 10,0 -2,6 c 0,0 -2.1828,-3.496665 -4,-4 -1.3245,-0.366865 -2.87657,0.208297 -4,1 -0.98241,0.692324 -1.42052,1.947076 -2,3 -1.58289,2.876148 -2.97213,5.882105 -4,9 -0.96219,2.918671 -1.66466,5.945169 -2,9 -0.10912,0.994029 -0.58471,2.188758 0,3 0.61634,0.855124 1.95104,1.103868 3,1 2.67434,-0.264812 7,-4 7,-4 l -2,6 -10,0 -6,0 c 0,0 2.04568,-3.977806 3,-6 1.40112,-2.968947 2.97213,-5.882105 4,-9 0.96219,-2.918671 1.41384,-5.983236 2,-9 0.38673,-1.990365 1,-6 1,-6 z m -3,0 c 0,0 -2.04568,3.977806 -3,6 -1.40112,2.968947 -2.97213,5.882105 -4,9 -0.96219,2.918671 -1.41384,5.983236 -2,9 -0.38673,1.990365 -1,6 -1,6 l -6,0 -10,0 1,-3 1,-3 c 0,0 2.1828,3.496665 4,4 1.3245,0.366865 2.87657,-0.208297 4,-1 0.98241,-0.692324 1.42052,-1.947076 2,-3 1.58289,-2.876148 2.97213,-5.882105 4,-9 0.96219,-2.918671 1.66466,-5.945169 2,-9 0.10912,-0.994029 0.58471,-2.188758 0,-3 -0.61634,-0.855124 -1.95104,-1.103868 -3,-1 -2.67434,0.264812 -7,4 -7,4 l 2,-6 10,0 6,0 z"
       sodipodi:nodetypes="ccccsssssssccccsssccssscccccssssssscccc" />
  </g>
</svg>
